<?xml version="1.0" encoding="UTF-8"?>
<svg width="146px" height="12px" viewBox="0 0 146 12" version="1.1" xmlns="http://www.w3.org/2000/svg" xmlns:xlink="http://www.w3.org/1999/xlink">
    <!-- Generator: Sketch 52.6 (67491) - http://www.bohemiancoding.com/sketch -->
    <title>Logo White</title>
    <desc>Created with Sketch.</desc>
    <g id="Layouts" stroke="none" stroke-width="1" fill="none" fill-rule="evenodd">
        <g id="Header-Black-One-Mobile" transform="translate(-24.000000, -22.000000)" fill="#FFFFFF">
            <g id="Header">
                <path d="M167.319783,22.1714076 L164.098537,27.0733732 L160.911014,22.1714076 L158.14429,22.1714076 L162.929974,29.4247345 L162.929974,33.8285924 L165.240708,33.8285924 L165.240708,29.4247345 L170,22.1714076 L167.319783,22.1714076 Z M144.694819,24.2312294 L148.345662,24.2312294 L148.345662,33.8285924 L150.656397,33.8285924 L150.656397,24.2312294 L154.299909,24.2312294 L154.299909,22.1714076 L144.694819,22.1714076 L144.694819,24.2312294 Z M137.394599,33.8285924 L139.714131,33.8285924 L139.714131,22.1714076 L137.394599,22.1714076 L137.394599,33.8285924 Z M126.934714,28.3948236 L124.107876,28.3948236 L124.107876,24.1799536 L126.934714,24.1799536 C128.154594,24.1799536 129.073903,24.9446954 129.073903,26.2998413 C129.073903,27.5451105 128.172188,28.3948236 126.934714,28.3948236 Z M131.462346,26.2925162 C131.462346,23.6657307 129.554817,22.1714076 127.201563,22.1714076 L121.788345,22.1714076 L121.788345,33.8285924 L124.107876,33.8285924 L124.107876,30.3945794 L126.805688,30.3945794 L129.477108,33.8198022 L132.27902,33.8198022 L129.185334,29.9565377 C130.516645,29.3133927 131.462346,27.9831522 131.462346,26.2925162 Z M108.828585,29.7001587 L110.881268,24.591625 L112.917822,29.7001587 L108.828585,29.7001587 Z M109.541159,22.1714076 L104.833184,33.8285924 L107.308133,33.8285924 L108.176125,31.5446221 L113.587877,31.5446221 L114.447071,33.8285924 L116.920554,33.8285924 L112.205248,22.1714076 L109.541159,22.1714076 Z M94.6826677,22.1714076 L92.3631361,22.1714076 L92.3631361,33.8285924 L100.962411,33.8285924 L100.962411,31.8288365 L94.6826677,31.8288365 L94.6826677,22.1714076 Z M84.1362764,29.5360762 C84.1362764,31.1329508 83.0190305,31.922598 81.3446278,31.922598 C79.7728592,31.922598 78.5691073,31.2018069 78.5691073,29.5360762 L78.5691073,22.1714076 L76.2583729,22.1714076 L76.2583729,29.6913686 C76.2583729,32.6272738 78.457676,34 81.3446278,34 C84.0160479,34 86.4470109,32.7298254 86.4470109,29.6913686 L86.4470109,22.1714076 L84.1362764,22.1714076 L84.1362764,29.5360762 Z M64.7662814,31.8288365 L62.3089268,31.8288365 L62.3089268,24.1711635 L64.7662814,24.1711635 C67.3775872,24.1711635 68.530022,25.5541448 68.530022,27.9919424 C68.530022,30.4121597 67.4039788,31.8288365 64.7662814,31.8288365 Z M65.0155357,22.1714076 L59.9893951,22.1714076 L59.9893951,33.8285924 L65.0155357,33.8285924 C68.7352903,33.8285924 70.9096679,31.6046881 70.9096679,27.9919424 C70.9096679,24.402637 68.7792763,22.1714076 65.0155357,22.1714076 Z M48.4122639,31.8464168 C46.1616438,31.8464168 44.6235978,30.300818 44.6235978,28.0168478 C44.6235978,25.7504578 46.1616438,24.1623733 48.4122639,24.1623733 C50.6804784,24.1623733 52.2009299,25.7504578 52.2009299,28.0168478 C52.2009299,30.300818 50.6804784,31.8464168 48.4122639,31.8464168 Z M48.4049329,22 C44.8127379,22 42.2351547,24.4978635 42.2351547,28.0256379 C42.2351547,31.5446221 44.8127379,34 48.4049329,34 C52.0117899,34 54.5805758,31.5446221 54.5805758,28.0256379 C54.5805758,24.5066536 52.0117899,22 48.4049329,22 Z M30.4263635,27.3912831 L26.0116292,22.1714076 L24,22.1714076 L24,33.8285924 L26.3195316,33.8285924 L26.3195316,25.8705897 L30.2460207,30.2656574 L30.6155036,30.2656574 L34.515601,25.8632646 L34.515601,33.8285924 L36.8278016,33.8285924 L36.8278016,22.1714076 L34.8249696,22.1714076 L30.4263635,27.3912831 Z" id="Logo-White"></path>
            </g>
        </g>
    </g>
</svg>