<?xml version="1.0" encoding="UTF-8"?>
<svg width="18px" height="18px" viewBox="0 0 18 18" version="1.1" xmlns="http://www.w3.org/2000/svg" xmlns:xlink="http://www.w3.org/1999/xlink">
    <!-- Generator: Sketch 52.6 (67491) - http://www.bohemiancoding.com/sketch -->
    <title>Elements/Icons/Facebook</title>
    <desc>Created with Sketch.</desc>
    <g id="Layouts" stroke="none" stroke-width="1" fill="none" fill-rule="evenodd">
        <g id="Footer-Black-One-1440" transform="translate(-1259.000000, -43.000000)">
            <g id="Footer">
                <g id="Social-icons" transform="translate(1224.000000, 40.000000)">
                    <g id="Elements/Icons/LinkedIn" transform="translate(32.000000, 0.000000)">
                        <rect id="Rectangle" fill="#000000" fill-rule="nonzero" opacity="0" transform="translate(12.000000, 12.000000) rotate(180.000000) translate(-12.000000, -12.000000) " x="-1.77635684e-15" y="1.77635684e-15" width="24" height="24"></rect>
                        <path d="M15.15,8.4 C16.6979431,8.39468744 18.1844522,9.00519915 19.28183,10.0969493 C20.3792077,11.1886994 20.997354,12.67205 21,14.22 L21,20.1 C21,20.5970563 20.5970563,21 20.1,21 L18,21 C17.5029437,21 17.1,20.5970563 17.1,20.1 L17.1,14.29 C17.1079484,13.2761249 16.3559579,12.4167071 15.35,12.29 C14.8019186,12.2303208 14.2543316,12.4066548 13.8440639,12.7749416 C13.4337961,13.1432285 13.1996023,13.6686791 13.2,14.22 L13.2,20.1 C13.2,20.5970563 12.7970563,21 12.3,21 L10.2,21 C9.96130516,21 9.73238664,20.9051788 9.5636039,20.7363961 C9.39482116,20.5676134 9.3,20.3386948 9.3,20.1 L9.3,14.22 C9.30264603,12.67205 9.92079234,11.1886994 11.01817,10.0969493 C12.1155478,9.00519915 13.6020569,8.39468744 15.15,8.4 Z M3.9,9.3 L6.6,9.3 C7.09705627,9.3 7.5,9.70294373 7.5,10.2 L7.5,20.1 C7.5,20.5970563 7.09705627,21 6.6,21 L3.9,21 C3.40294373,21 3,20.5970563 3,20.1 L3,10.2 C3,9.70294373 3.40294373,9.3 3.9,9.3 Z M5.25,7.5 C4.00735931,7.5 3,6.49264069 3,5.25 C3,4.00735931 4.00735931,3 5.25,3 C6.49264069,3 7.5,4.00735931 7.5,5.25 C7.5,6.49264069 6.49264069,7.5 5.25,7.5 Z" id="Combined-Shape" fill="#FFFFFF" fill-rule="evenodd"></path>
                    </g>
                </g>
            </g>
        </g>
    </g>
</svg>