<?xml version="1.0" encoding="UTF-8"?>
<svg width="11px" height="18px" viewBox="0 0 11 18" version="1.1" xmlns="http://www.w3.org/2000/svg" xmlns:xlink="http://www.w3.org/1999/xlink">
    <!-- Generator: Sketch 52.6 (67491) - http://www.bohemiancoding.com/sketch -->
    <title>Elements/Icons/Facebook Copy</title>
    <desc>Created with Sketch.</desc>
    <g id="Layouts" stroke="none" stroke-width="1" fill="none" fill-rule="evenodd">
        <g id="Footer-Black-One-1440" transform="translate(-1230.000000, -43.000000)">
            <g id="Footer">
                <g id="Social-icons" transform="translate(1224.000000, 40.000000)">
                    <g id="Elements/Icons/Facebook">
                        <rect id="Rectangle" fill="#000000" fill-rule="nonzero" opacity="0" transform="translate(12.000000, 12.000000) rotate(180.000000) translate(-12.000000, -12.000000) " x="-1.77635684e-15" y="1.77635684e-15" width="24" height="24"></rect>
                        <path d="M17,3.5 C17,3.22385763 16.7761424,3 16.5,3 L14,3 C11.3793165,2.86945443 9.14527505,4.8800917 9,7.5 L9,10.2 L6.5,10.2 C6.22385763,10.2 6,10.4238576 6,10.7 L6,13.3 C6,13.5761424 6.22385763,13.8 6.5,13.8 L9,13.8 L9,20.5 C9,20.7761424 9.22385763,21 9.5,21 L12.5,21 C12.7761424,21 13,20.7761424 13,20.5 L13,13.8 L15.62,13.8 C15.8487445,13.8032859 16.0505439,13.6509068 16.11,13.43 L16.83,10.83 C16.8703184,10.6802721 16.8388876,10.5203113 16.7449137,10.3969705 C16.6509398,10.2736298 16.5050589,10.200869 16.35,10.2 L13,10.2 L13,7.5 C13.051542,6.98709871 13.4845219,6.59741675 14,6.6 L16.5,6.6 C16.7761424,6.6 17,6.37614237 17,6.1 L17,3.5 Z" id="Path" fill="#FFFFFF" fill-rule="evenodd"></path>
                    </g>
                </g>
            </g>
        </g>
    </g>
</svg>