<?xml version="1.0" encoding="UTF-8"?>
<svg width="120px" height="24px" viewBox="0 0 120 24" version="1.1" xmlns="http://www.w3.org/2000/svg" xmlns:xlink="http://www.w3.org/1999/xlink">
    <!-- Generator: Sketch 52.6 (67491) - http://www.bohemiancoding.com/sketch -->
    <title>AmazonPay</title>
    <desc>Created with Sketch.</desc>
    <g id="Layouts" stroke="none" stroke-width="1" fill="none" fill-rule="evenodd">
        <g id="Partners-Black-Three-Mobile" transform="translate(-46.000000, -155.000000)" fill="#E4E4E4">
            <g id="Partners" transform="translate(0.000000, 0.000000)">
                <g id="Slot1" transform="translate(24.000000, 104.000000)">
                    <path d="M112.754702,61.4880041 C112.122702,62.1113377 111.415368,62.2813378 110.352701,62.2813378 C109.407368,62.2813378 108.162034,61.7880042 107.232033,61.1006706 L107.232033,54.1806679 C108.200034,53.4366676 109.435368,53.0346675 110.464035,53.0346675 C113.152702,53.0346675 113.884703,55.1486683 113.884703,57.5686692 C113.899369,59.2006699 113.600036,60.6546705 112.754702,61.4880041 Z M111.130035,51.0073333 C109.703368,51.0073333 108.206034,51.6693336 107.0427,52.7020007 L106.912033,51.816667 C106.879367,51.5933336 106.700033,51.4046668 106.4387,51.4046668 L105.196699,51.4046668 C104.970033,51.4046668 104.784699,51.5893336 104.784699,51.816667 L104.784699,68.724007 C104.784699,68.9506737 104.970033,69.1366738 105.196699,69.1366738 L106.820033,69.1366738 C107.046033,69.1366738 107.232033,68.9506737 107.232033,68.724007 L107.232033,62.8860047 C108.261367,63.804005 109.600034,64.3326719 111.031368,64.3326719 C114.43137,64.3326719 116.44137,61.3880041 116.44137,57.7240026 C116.44137,54.3000013 115.12737,51.0073333 111.130035,51.0073333 Z M125.998708,61.1873373 C125.589374,61.5800042 124.767374,62.0200043 123.891373,62.2686711 C122.979373,62.5280045 122.009373,62.5793379 121.383372,62.154671 C120.845372,61.8240043 120.614705,61.156004 120.614705,60.4893371 C120.614705,59.9740035 120.773372,59.4413366 121.126039,59.0700032 C121.596039,58.5633363 122.496039,58.3693362 123.319373,58.3693362 C123.84004,58.3693362 125.185374,58.4613363 125.998708,58.6833364 L125.998708,61.1873373 Z M123.650707,51 C122.011373,51.054 120.469372,51.3500001 119.380705,51.8240003 C119.171372,51.890667 118.977371,52.1106671 118.977371,52.3380005 L118.977371,53.2833342 C118.977371,53.5106677 119.120038,53.6960011 119.364038,53.6873344 C120.888039,53.2140009 121.983373,52.9973341 123.414707,52.9973341 C125.288707,52.9973341 125.998708,53.7280011 125.998708,55.4153351 L125.998708,57.0746691 C125.030707,56.7586689 123.701373,56.6493356 122.77204,56.6493356 C121.233372,56.6493356 119.960038,57.1146691 119.080038,58.0626694 C118.422038,58.7573364 118.124704,59.7133368 118.124704,60.6773371 C118.124704,61.9233376 118.658705,63.1313381 119.666038,63.750005 C121.058039,64.604672 122.700706,64.512672 124.125373,63.9593384 C124.866707,63.6706716 125.549374,63.2566715 126.106708,62.785338 L126.228708,63.6106716 C126.261374,63.834005 126.440708,64.0226718 126.702708,64.0226718 L127.913375,64.0226718 C128.140708,64.0226718 128.326708,63.8366717 128.326708,63.6106716 L128.326708,54.7680015 C128.326708,51.4813335 125.787374,51 123.650707,51 Z M141.646714,51.3826668 L140.026713,51.3826668 C139.70138,51.3826668 139.562713,51.5920002 139.492713,51.7940003 L136.091378,61.6833375 L132.52871,51.7940003 C132.455377,51.5906669 132.32271,51.3826668 131.994043,51.3826668 L130.276709,51.3826668 C129.864042,51.3826668 129.888042,51.7660003 129.971376,51.972667 L134.886044,64.1466718 C134.724044,64.6153387 134.468044,65.329339 134.080711,66.2146726 C133.806044,66.8426729 133.342044,67.3020064 132.69471,67.4366731 C132.199377,67.5380065 131.501376,67.4686731 131.007376,67.3986731 C130.742709,67.3833398 130.618043,67.5573398 130.618043,67.8106733 L130.618043,68.7013403 C130.618043,68.8593403 130.686043,69.0973404 130.864043,69.1860071 C131.567376,69.4800073 132.764044,69.5693406 133.712711,69.3220072 C135.605378,68.860007 136.446045,66.198006 137.077379,64.526672 L141.952047,51.972667 C142.03338,51.7653336 142.056047,51.3826668 141.646714,51.3826668 Z M28.5186692,61.0686706 C28.1433357,61.7333375 27.5466688,62.1420044 26.8833353,62.1420044 C25.9780016,62.1420044 25.4473347,61.4520041 25.4473347,60.4286704 C25.4473347,58.4173362 27.2526687,58.0513361 28.9613361,58.0513361 L28.9613361,58.5626696 C28.9613361,59.4833367 28.9833361,60.2500036 28.5186692,61.0686706 Z M33.1673377,62.130671 C32.7360042,61.5340041 32.276004,61.0486706 32.276004,59.9413368 L32.276004,56.2620021 C32.276004,54.7013348 32.3860041,53.2693342 31.237337,52.1960005 C30.3526699,51.3460001 28.8986694,51.034 27.7606689,51.02 L27.5860022,51.02 C25.3620013,51.0433334 22.9153337,51.896667 22.3966668,54.6360014 C22.3406668,54.9313349 22.5560002,55.0860016 22.7493336,55.1300016 L25.0386679,55.3780017 C25.2533346,55.367335 25.4080013,55.1560016 25.4493347,54.9433349 C25.6453348,53.9866678 26.4473351,53.5253343 27.3480021,53.5253343 C27.8340023,53.5253343 28.3866692,53.7040011 28.6740026,54.1393346 C29.0053361,54.6253348 28.9613361,55.289335 28.9613361,55.8520019 L28.9613361,56.1586687 C27.5913355,56.3126688 25.8006682,56.4146688 24.5193343,56.9773357 C23.0386671,57.6166693 22,58.9206698 22,60.8380039 C22,63.2926715 23.5466673,64.5200053 25.5360014,64.5200053 C27.2153354,64.5200053 28.1333357,64.1240052 29.4306696,62.803338 C29.8593364,63.4240049 30.0000031,63.7246717 30.7846701,64.3773386 C30.9606702,64.472672 31.1866703,64.462672 31.3426703,64.3220052 L31.3480037,64.3273386 C31.8200039,63.9080051 32.6773375,63.1633381 33.1600044,62.7586713 C33.3520045,62.6013379 33.3180044,62.3460045 33.1673377,62.130671 Z M59.4873481,61.0686706 C59.1113479,61.7333375 58.514681,62.1420044 57.8520141,62.1420044 C56.9460137,62.1420044 56.4153469,61.4520041 56.4153469,60.4286704 C56.4153469,58.4173362 58.2200142,58.0513361 59.9293482,58.0513361 L59.9293482,58.5626696 C59.9293482,59.4833367 59.9506816,60.2500036 59.4873481,61.0686706 Z M59.9293482,56.1586687 C58.5593477,56.3126688 56.7686803,56.4146688 55.4873465,56.9773357 C54.0066792,57.6166693 52.9680122,58.9206698 52.9680122,60.8380039 C52.9680122,63.2926715 54.5153461,64.5200053 56.5040136,64.5200053 C58.1833475,64.5200053 59.1020146,64.1240052 60.3980151,62.803338 C60.8273486,63.4240049 60.9680153,63.7246717 61.7526823,64.3773386 C61.9286824,64.472672 62.1546824,64.462672 62.3100158,64.3220052 L62.3166825,64.3273386 C62.788016,63.9080051 63.6453497,63.1633381 64.1280165,62.7586713 C64.3200166,62.6013379 64.2866833,62.3460045 64.1353499,62.130671 C63.7040164,61.5340041 63.2433495,61.0486706 63.2433495,59.9413368 L63.2433495,56.2620021 C63.2433495,54.7013348 63.3546829,53.2693342 62.2053491,52.1960005 C61.3200154,51.3460001 59.8666815,51.034 58.7286811,51.02 L58.5533477,51.02 C56.3300135,51.0433334 53.8840125,51.896667 53.364679,54.6360014 C53.3093456,54.9313349 53.5233457,55.0860016 53.7173458,55.1300016 L56.00668,55.3780017 C56.2206801,55.367335 56.3760135,55.1560016 56.4166802,54.9433349 C56.6140136,53.9866678 57.4146806,53.5253343 58.3160143,53.5253343 C58.8020145,53.5253343 59.3540147,53.7040011 59.6420148,54.1393346 C59.9733483,54.6253348 59.9293482,55.289335 59.9293482,55.8520019 L59.9293482,56.1586687 Z M94.9520287,51.1366667 C93.3206947,51.1366667 92.3946943,51.9273337 91.7333607,53.586001 L91.6880274,53.586001 L91.6880274,51.7313336 C91.6453607,51.5433335 91.474694,51.4026668 91.2686939,51.3920002 L89.0773597,51.3926668 C88.8393596,51.3926668 88.6433595,51.5660002 88.6240262,51.7880003 L88.6280262,63.9173384 C88.6280262,64.1493385 88.8153596,64.3366719 89.0513597,64.3526719 L91.4053606,64.3526719 C91.6573607,64.3526719 91.8606941,64.1580052 91.8653608,63.9166717 L91.8653608,57.3880025 C91.8653608,56.5706689 91.9086941,55.8313352 92.2406943,55.0906683 C92.5046944,54.5040014 93.0340279,54.1220012 93.6073615,54.1220012 C95.2400288,54.1220012 95.0846954,56.0606687 95.0846954,57.3880025 L95.0846954,63.9713384 C95.1100287,64.1773385 95.2866955,64.3380052 95.5053622,64.3526719 L97.8733631,64.3526719 C98.1066966,64.3526719 98.2993633,64.1853385 98.32603,63.9713384 L98.32603,56.3413354 C98.32603,55.167335 98.32603,53.5346677 97.7086964,52.5653339 C97.0466961,51.5186669 96.0106957,51.1366667 94.9520287,51.1366667 Z M81.4560234,62.1073377 C79.603356,62.1073377 79.625356,58.9440031 79.625356,57.4640025 C79.625356,55.984002 79.735356,53.612001 81.47669,53.612001 C82.2266903,53.612001 82.7566905,53.9433345 83.0206906,54.7853348 C83.3300241,55.7546685 83.3746908,56.9793357 83.3746908,58.0000027 C83.3746908,59.5560034 83.2866907,62.1073377 81.4560234,62.1073377 Z M81.4560234,51.1366667 C78.0373553,51.1366667 76.1413546,54.0706679 76.1413546,57.8466694 C76.1413546,61.5966708 78.0153553,64.6080053 81.4560234,64.6080053 C84.7640247,64.6080053 86.8580255,61.6733375 86.8580255,57.9740027 C86.8580255,54.1473346 84.9620247,51.1366667 81.4560234,51.1366667 Z M35.4326719,64.3526719 L37.7946729,64.3526719 C38.0460063,64.3526719 38.2506731,64.1580052 38.2506731,63.9166717 L38.2513397,57.4893359 C38.2513397,56.086002 38.184673,54.1473346 39.8826737,54.1473346 C41.5586743,54.1473346 41.3380076,56.1373354 41.3380076,57.4893359 L41.3406743,63.9173384 C41.3406743,64.1493385 41.527341,64.3366719 41.7646744,64.3526719 L44.1246754,64.3526719 C44.3760088,64.3526719 44.5800089,64.1580052 44.5800089,63.9166717 L44.5800089,57.4893359 C44.5800089,56.8000023 44.5580089,55.7800019 44.800009,55.167335 C45.0433424,54.5553347 45.638676,54.1720012 46.2120095,54.1720012 C46.8953431,54.1720012 47.4246767,54.4020013 47.6006767,55.219335 C47.7113434,55.7040018 47.6673434,56.9793357 47.6673434,57.4893359 L47.6680101,63.9173384 C47.6680101,64.1493385 47.8540102,64.3366719 48.0913436,64.3526719 L50.4506778,64.3526719 C50.7033446,64.3526719 50.906678,64.1580052 50.906678,63.9166717 L50.908678,56.2653354 C50.908678,54.9633349 51.0626781,53.484001 50.3133445,52.4633339 C49.6520109,51.5446669 48.5713438,51.1366667 47.5786767,51.1366667 C46.1900095,51.1366667 44.8886757,51.850667 44.3153421,53.3820009 C43.6540085,51.850667 42.7273415,51.1366667 41.2500076,51.1366667 C39.7953403,51.1366667 38.7140066,51.850667 38.1413397,53.3820009 L38.096673,53.3820009 L38.096673,51.7993336 C38.0820063,51.5773336 37.8973396,51.4033335 37.6673395,51.3920002 L35.4673386,51.3926668 C35.2153385,51.3926668 35.0113384,51.5860002 35.0113384,51.828667 L35.0093384,63.9526718 C35.0280051,64.1686718 35.2073385,64.3373386 35.4326719,64.3526719 Z M74.593354,61.0673373 C73.2366868,60.305337 71.6573528,60.0813369 70.1640189,60.1160036 L74.1866872,54.3733347 C74.5586873,53.8573345 74.7686874,53.532001 74.7706874,53.2826676 L74.7706874,51.796667 C74.7706874,51.5406669 74.5720207,51.3600001 74.3233539,51.3600001 L66.5586842,51.3606668 C66.3193507,51.3600001 66.120684,51.5353335 66.118684,51.7993336 L66.118684,53.5313343 C66.120684,53.7913344 66.3200174,53.9680012 66.5680175,53.9680012 L70.6253524,53.9686678 L65.9653506,60.6540038 C65.6820172,61.0826706 65.6760172,61.5633375 65.6760172,61.8446709 L65.6760172,63.602005 C65.6760172,63.8566717 65.9586839,64.1473385 66.228684,64.0033384 C68.8720184,62.6000046 72.043353,62.7360046 74.4333539,63.9880051 C74.7260207,64.1413385 75.0053542,63.8466717 75.0053542,63.5920049 L75.0053542,61.7440042 C74.9806875,61.4940041 74.8986874,61.2393374 74.593354,61.0673373 Z M65.9080172,66.1273393 C65.5186838,66.4006727 65.5853505,66.7793395 66.018684,66.7273395 C67.4480179,66.5566728 70.6300191,66.174006 71.1973527,66.9006729 C71.7653529,67.6273399 70.5666857,70.6200077 70.0313522,71.9573416 C69.8686855,72.3613417 70.2166856,72.5246751 70.5833524,72.218675 C72.96202,70.2280076 73.5766869,66.0580059 73.0893534,65.4560057 C72.6066865,64.8593388 68.4473516,64.3440052 65.9080172,66.1273393 Z M68.7073517,67.97134 C63.7353497,70.0800075 58.3326809,71.1000079 53.4173457,71.1000079 C46.1313428,71.1000079 39.0760067,69.1013404 33.3720045,65.7813391 C32.8726709,65.491339 32.5026708,66.0026726 32.9180043,66.378006 C38.2053397,71.1526746 45.1926758,74.0206757 52.9513455,74.0206757 C58.4880143,74.0206757 64.9173502,72.2800084 69.3520186,69.0073404 C70.0853522,68.4653402 69.457352,67.6533399 68.7073517,67.97134 Z" id="AmazonPay"></path>
                </g>
            </g>
        </g>
    </g>
</svg>