<?xml version="1.0" encoding="UTF-8"?>
<svg width="88px" height="42px" viewBox="0 0 88 42" version="1.1" xmlns="http://www.w3.org/2000/svg" xmlns:xlink="http://www.w3.org/1999/xlink">
    <!-- Generator: Sketch 52.6 (67491) - http://www.bohemiancoding.com/sketch -->
    <title>ApplePay</title>
    <desc>Created with Sketch.</desc>
    <g id="Layouts" stroke="none" stroke-width="1" fill="none" fill-rule="evenodd">
        <g id="Partners-Black-Three-Mobile" transform="translate(-226.000000, -263.000000)" fill="#FFFFFF">
            <g id="Partners" transform="translate(0.000000, 0.000000)">
                <g id="Slot4" transform="translate(188.000000, 224.000000)">
                    <path d="M122.182526,51.6051562 L118.241722,63.2624703 C117.749527,64.6992616 117.338894,66.2180385 116.969466,67.4084502 L116.88748,67.4084502 C116.558974,66.2180385 116.066356,64.6581984 115.614801,63.3445968 L111.264069,51.6051562 L107.323405,51.6051562 L114.67091,69.9121812 C114.835022,70.3637361 114.917007,70.6511791 114.917007,70.8563544 C114.917007,71.0615296 114.7941,71.3489726 114.629847,71.7182599 C113.808722,73.5654018 112.577388,74.9611299 111.592152,75.7409088 C110.525071,76.6438776 109.334942,77.2187635 108.431691,77.5060653 L109.334942,80.5434778 C110.238051,80.3793658 112.002785,79.7636989 113.7678,78.2037177 C116.230609,76.069415 117.995624,72.5804476 120.581623,65.7663424 L126,51.6051562 L122.182526,51.6051562 Z M80.1169381,57.7622489 C78.9265264,57.7622489 77.941431,57.6802634 77.1613699,57.474947 L77.1613699,46.7204606 C77.7770368,46.5563486 78.9675896,46.4331588 80.5274297,46.4331588 C84.467811,46.4331588 87.0538097,48.1981741 87.0538097,51.8513947 C87.0538097,55.6688684 84.4267478,57.7622489 80.1169381,57.7622489 Z M88.2031582,45.8994773 C86.5613326,44.4219048 83.9751928,43.6009215 80.4453032,43.6009215 C77.5718616,43.6009215 75.314228,43.8471601 73.590417,44.134603 L73.590417,71.4720213 L77.1613699,71.4720213 L77.1613699,60.3891697 C77.9824943,60.5944861 78.9675896,60.6355494 80.0346704,60.6355494 C83.523779,60.6355494 86.6022548,59.6095319 88.49046,57.5981369 C89.8861881,56.1613455 90.6249038,54.1911549 90.6249038,51.6872827 C90.6249038,49.2244738 89.721935,47.2130788 88.2031582,45.8994773 Z M102.976907,64.7813882 C102.976907,65.1506755 102.89478,65.5613082 102.771591,65.9307366 C102.196987,67.6134843 100.55502,69.255451 97.9691626,69.255451 C96.1218796,69.255451 94.5623217,68.1473069 94.5623217,65.8074057 C94.5623217,61.9490098 99.0365256,61.2512163 102.976907,61.3332018 L102.976907,64.7813882 Z M106.466016,59.2810257 C106.466016,55.29944 104.988161,51.1536012 98.9131947,51.1536012 C96.4093225,51.1536012 94.0286402,51.8513947 92.3868147,52.9187577 L93.2076569,55.29944 C94.6032439,54.3963301 96.5325124,53.8215854 98.3795132,53.8215854 C102.443367,53.8215854 102.89478,56.7770124 102.89478,58.4189791 L102.89478,58.8294708 C95.2189108,58.7884075 90.9500233,61.4153283 90.9500233,66.2180385 C90.9500233,69.091339 93.0024816,71.9234351 97.0251306,71.9234351 C99.8573678,71.9234351 101.991812,70.5279893 103.100097,68.9681492 L103.223287,68.9681492 L103.510588,71.4720213 L106.79424,71.4720213 C106.548142,70.1174976 106.466016,68.4344677 106.466016,66.7106567 L106.466016,59.2810257 Z M53.4952344,46.6085596 C54.3183344,46.2834401 54.983249,45.7280275 55.586216,45.0954272 C56.9218308,43.6943369 57.6818542,42.0312036 57.8167562,40.096573 C57.8414507,39.7421023 57.7879696,39.3819873 57.7694841,39 C53.5557709,39.8683966 51.3754661,42.6621106 51.2721729,46.9808102 C51.2840263,46.9871602 51.2963029,46.9998602 51.3075918,46.9990135 C52.0505408,46.9449681 52.7949009,46.8849959 53.4952344,46.6085596 Z M62.3152312,60.7454748 C60.9645175,58.9131495 60.5068948,56.8702868 60.9367187,54.6424276 C61.2470216,53.0343275 62.1281182,51.7431626 63.3007499,50.6344541 C63.6317961,50.321329 63.971309,50.0169528 64.3063063,49.7091899 C64.2926185,49.682661 64.2865508,49.6619177 64.2737097,49.6468188 C64.1320343,49.4805902 63.9907823,49.3140793 63.8465669,49.1502495 C62.6958074,47.8434213 61.3219515,46.9070092 59.5830416,46.5703186 C58.2389601,46.3102511 56.9174564,46.4208821 55.6148615,46.8076671 C54.7387038,47.0678757 53.8718594,47.3596931 52.994855,47.6169383 C52.3728381,47.7995358 51.7375568,47.873619 51.0943732,47.7103537 C50.6445116,47.5964772 50.1898522,47.4989695 49.7446473,47.3694297 C48.6761554,47.0587035 47.6116146,46.7357006 46.4971206,46.6252107 C44.2583958,46.4033844 42.350294,47.078459 40.7992028,48.7212723 C39.3018748,50.3072179 38.5091137,52.2260442 38.1862519,54.3530091 C37.8202102,56.7641713 38.0028077,59.1454181 38.6538935,61.4926571 C39.3858358,64.1317135 40.5796342,66.5523302 42.1466709,68.7899261 C42.7719334,69.6825937 43.4935747,70.4934171 44.4065623,71.1109185 C45.31193,71.7231987 46.2981542,72.0593249 47.3888005,71.8002453 C48.0819373,71.6354277 48.755883,71.3795937 49.4265832,71.1323673 C50.3085265,70.8072478 51.1937153,70.5207926 52.1491773,70.5435115 C52.9213363,70.561997 53.6618864,70.7436067 54.3939698,70.9698075 C55.1043222,71.1895172 55.8103001,71.4234791 56.523898,71.6314766 C57.9536338,72.0481772 59.2225032,71.6952588 60.3552006,70.7788845 C60.6886457,70.5090804 61.0143297,70.2222019 61.3027604,69.9058312 C62.8525816,68.2064324 63.9889478,66.2483773 64.8628478,64.1312902 C65.0127076,63.7680707 65.1361796,63.3941268 65.2760205,63.0143973 C65.1216452,62.9556951 64.9945042,62.9102574 64.86948,62.8594575 C63.7968959,62.4221547 62.9905881,61.661708 62.3152312,60.7454748 Z" id="ApplePay"></path>
                </g>
            </g>
        </g>
    </g>
</svg>