<?xml version="1.0" encoding="UTF-8"?>
<svg width="102px" height="36px" viewBox="0 0 102 36" version="1.1" xmlns="http://www.w3.org/2000/svg" xmlns:xlink="http://www.w3.org/1999/xlink">
    <!-- Generator: Sketch 52.6 (67491) - http://www.bohemiancoding.com/sketch -->
    <title>Payoneer</title>
    <desc>Created with Sketch.</desc>
    <g id="Layouts" stroke="none" stroke-width="1" fill="none" fill-rule="evenodd">
        <g id="Partners-Black-Three-Mobile" transform="translate(-219.000000, -386.000000)" fill="#E4E4E4">
            <g id="Partners" transform="translate(0.000000, 0.000000)">
                <g id="Slot6" transform="translate(188.000000, 344.000000)">
                    <path d="M58.6640745,45.7895176 C59.0620326,48.0490057 59.4490014,50.3108477 59.8765934,52.5647608 C60.2110856,54.3283212 60.5774342,56.0866781 60.9757627,57.8367346 C61.1047935,58.4036508 61.3338385,58.9615231 61.6035067,59.4780164 C61.809462,59.8724791 62.1013556,59.8429935 62.37658,59.4817331 C62.4906704,59.3320751 62.6164909,59.1780811 62.6797098,59.0050081 C63.2710288,57.3852829 63.5761341,55.7124094 63.6103365,53.9819274 C63.564404,53.4265329 63.5346467,52.8691562 63.4696991,52.3158678 C63.1322435,49.4433767 61.8976228,46.993719 59.9358611,44.9035872 C59.7081742,44.6610125 59.3782506,44.4803822 59.0615387,44.3659088 C58.733961,44.2477187 58.5208442,44.432685 58.5514658,44.8055909 C58.5786302,45.1345163 58.6070293,45.4649284 58.6640745,45.7895176 M128.205488,59.5521021 C128.271423,58.7274967 128.337235,57.9026435 128.407739,57.0216686 C127.3871,57.0216686 126.450423,57.0092797 125.515351,57.0385175 C125.407064,57.0418626 125.224198,57.2698184 125.213456,57.4047335 C124.951814,60.67974 124.286657,63.8877225 123.649899,67.1011561 C123.485308,67.9323276 123.344917,68.7684547 123.178227,69.6851096 C124.394944,69.6851096 125.537576,69.693658 126.679468,69.6681368 C126.765529,69.6660307 126.893202,69.4302699 126.922218,69.2869303 C127.278566,67.5293166 127.557371,65.7533674 127.980765,64.0127265 C128.588876,61.5128937 129.611121,60.6441838 132.045049,60.3236829 C132.152348,60.3095596 132.314593,60.1981833 132.333979,60.1071249 C132.563147,59.0235915 132.770091,57.9352263 133,56.7607583 C130.654727,56.5157058 129.34491,57.8740252 128.205488,59.5521021 M118.899591,61.5634404 C118.44607,61.7629018 117.952913,61.9116925 117.462966,61.9785926 C116.730516,62.0786949 115.985471,62.0873671 115.197334,62.1380378 C115.362419,60.4027241 117.176876,59.0621209 118.642641,59.4677336 C119.114313,59.5983127 119.46745,59.8480729 119.539189,60.3643185 C119.615002,60.9111647 119.386945,61.3488646 118.899591,61.5634404 M120.357083,57.0066781 C117.666575,56.26322 115.323154,56.9835108 113.426711,59.0019109 C111.662385,60.879573 111.012786,63.1792012 111.319249,65.7157051 C111.559654,67.7048674 112.605976,69.1516435 114.589346,69.6957641 C116.795463,70.3010859 118.964539,70.0033805 121.061505,69.1422279 C121.204612,69.0833806 121.371179,68.8415492 121.363276,68.6933779 C121.323518,67.9369115 121.229924,67.1832946 121.150406,66.3816087 C120.892592,66.4792332 120.700342,66.5538144 120.506734,66.6249267 C119.346445,67.0514766 118.154053,67.2356996 116.92116,67.0846789 C115.598996,66.9227559 114.726896,65.9937121 114.844074,64.7739007 C115.213262,64.7739007 115.558867,64.7799713 115.904102,64.7729096 C117.578785,64.738964 119.243097,64.6315522 120.794553,63.9094031 C122.337489,63.1912184 123.080065,61.9581509 122.980668,60.3245502 C122.878678,58.6520483 122.004355,57.4618464 120.357083,57.0066781 M106.521403,61.6065538 C105.772161,61.9975476 103.827315,62.2318218 102.870759,62.0352099 C103.066959,60.3904591 104.801034,59.096686 106.276307,59.4562119 C106.775143,59.577871 107.130379,59.8450996 107.213725,60.3769552 C107.295094,60.8944397 107.034193,61.3389535 106.521403,61.6065538 M108.094344,57.0180759 C105.747589,56.3183506 103.591602,56.8104378 101.7485,58.3820941 C99.508303,60.2922151 98.6685535,62.8215335 98.9909452,65.7051746 C99.2183851,67.7402996 100.322493,69.2008274 102.353401,69.725993 C104.526674,70.2882014 106.666486,69.9948322 108.730114,69.1468118 C108.873344,69.0878406 109.041023,68.8486109 109.033738,68.7016785 C108.995831,67.943106 108.904707,67.187259 108.832598,66.4371109 C108.743079,66.4371109 108.705913,66.4281909 108.675415,66.4385976 C108.544408,66.4838171 108.414637,66.5333727 108.284989,66.5830522 C107.096794,67.0387161 105.873657,67.2399119 104.603228,67.08567 C103.292177,66.9264726 102.423658,66.0129149 102.507991,64.7254601 C103.323169,64.7254601 104.123407,64.7641135 104.918212,64.716664 C106.189751,64.6410917 107.441411,64.4273831 108.596391,63.8483258 C110.07117,63.1089561 110.7688,61.8836936 110.653599,60.2847818 C110.536545,58.6605966 109.662099,57.4856331 108.094344,57.0180759 M95.0396401,56.8020134 C93.4215078,56.536767 92.0189618,57.0092797 90.7982936,58.0753448 C90.4642953,58.3668557 90.1488182,58.6794277 89.7854329,59.0192553 C89.8381565,58.354219 89.889028,57.7133411 89.942122,57.043597 L86.8050073,57.043597 C86.0341564,61.2539656 85.2691089,65.4336098 84.4892444,69.6939057 C85.6991703,69.6939057 86.7917955,69.7074096 87.882939,69.6747029 C88.0053021,69.6711102 88.1943415,69.4193677 88.2261979,69.2575686 C88.4950017,67.8909487 88.7400984,66.519621 88.981244,65.14755 C89.2018928,63.8923064 89.4289623,62.6389211 90.0691772,61.5128937 C90.5075114,60.7416845 91.0358584,60.0522421 91.9269734,59.767669 C92.848216,59.4733086 93.5396728,59.9154686 93.6446261,60.8652019 C93.6751243,61.1402355 93.6961149,61.4274103 93.6525284,61.69786 C93.3950843,63.2954091 93.1240579,64.8909759 92.8441414,66.4848082 C92.6612758,67.5259716 92.4556908,68.5630467 92.2619595,69.5934317 C92.3617268,69.6392707 92.4081532,69.6789152 92.45495,69.6792868 C93.5162127,69.6873396 94.5775988,69.7045602 95.6381207,69.6769329 C95.7591256,69.6739596 95.947918,69.4310132 95.9796509,69.2736742 C96.3415545,67.4824866 96.6814796,65.6869629 97.0214047,63.8914392 C97.3036672,62.4016736 97.6226016,60.9142619 97.4530712,59.3812591 C97.3011977,58.0080731 96.3779794,57.0214209 95.0396401,56.8020134 M78.6448294,66.2397557 C78.2336596,66.7626913 77.698398,67.1193678 77.0184243,67.1819318 C75.8033125,67.2936797 74.8777482,66.4529687 74.7757583,65.1568417 C74.7608179,64.9660526 74.7737827,64.7730335 74.7737827,64.5810055 C74.8139119,63.157025 75.1591464,61.8278196 76.015565,60.6643778 C76.3983358,60.1446633 76.8796391,59.7456167 77.5168906,59.599056 C78.8290533,59.2971384 79.9006878,60.060171 80.0209519,61.4829126 C80.1681334,63.2256595 79.7418997,64.8442697 78.6448294,66.2397557 M81.9334473,57.7802412 C80.6347433,56.8144023 79.1555197,56.6132065 77.5733184,56.7898723 C72.2807106,57.3805752 70.1204021,62.9901465 71.2468593,66.58553 C71.9332536,68.7757641 73.7979644,69.9892572 77.0668263,69.9843016 C79.3213458,69.9177732 81.5480836,68.641964 82.9466784,66.0165077 C83.694563,64.612845 83.9612678,63.0922311 83.8633525,61.5099204 C83.7688946,59.9850942 83.1701671,58.6997455 81.9334473,57.7802412 M52.1327713,65.6188239 C51.9094061,65.9641026 51.6173891,66.2805152 51.3045049,66.5482394 C50.787394,66.9905232 50.178912,67.1844096 49.5121501,66.9145793 C48.8447709,66.6446251 48.6063417,66.0386838 48.564237,65.4015226 C48.4274273,63.3371597 49.1448137,61.5935455 50.7242986,60.2595084 C51.5655298,59.5490048 52.56629,59.318819 53.7622633,59.6523283 C53.3329427,61.6982317 53.3017037,63.812398 52.1327713,65.6188239 M57.8213616,57.8623796 C57.8910011,57.4961636 57.8345733,57.2600311 57.40871,57.2003166 C56.3606591,57.0535081 55.3202636,56.8037478 54.268385,56.7447767 C52.2122889,56.6291882 50.227314,56.9926786 48.4954617,58.1778011 C45.7381543,60.0647549 44.6008314,62.7791635 44.7315908,66.0602405 C44.7938219,67.6217378 45.404156,68.9454921 46.8841205,69.6292357 C48.3842113,70.3223948 49.8640522,70.0905984 51.1588051,69.0904423 C51.7819805,68.6091334 52.2729148,67.9556188 52.8941146,67.3065642 C52.8534915,67.9558666 52.8279323,68.5739489 52.7715045,69.1889341 C52.7360674,69.5744767 52.8641103,69.7206658 53.2615745,69.7080291 C54.027116,69.6837468 54.7945095,69.6832513 55.5599275,69.7087724 C55.9734433,69.7225241 56.0704942,69.5670434 56.0961769,69.1656429 C56.1807569,67.8436231 56.2439758,66.5124355 56.4570926,65.2082557 C56.8587549,62.7509168 57.3563569,60.3091879 57.8213616,57.8623796 M41.2959149,58.5248142 C40.7224997,59.7477228 39.6885249,60.3244263 38.4077247,60.4650403 C37.7483712,60.5373915 37.0746948,60.477677 36.3182904,60.477677 C36.6616728,58.6504377 36.9618391,57.0262525 37.2812675,55.4059079 C37.3048511,55.2866028 37.4567246,55.1173704 37.5663699,55.1027515 C38.464029,54.9831986 39.3681087,54.9151835 40.2441598,55.2275077 C41.4793979,55.6678093 41.9471191,57.1361421 41.2959149,58.5248142 M45.1985711,56.001938 C44.9580429,54.3311706 43.5588307,52.9142518 41.5403943,52.4131207 C39.2303113,51.8395145 36.9123259,52.0767619 34.5995264,52.4281112 C34.295162,52.4743218 34.207989,52.6803493 34.1523021,52.9757007 C33.2687191,57.667626 32.3683436,62.356578 31.4755,67.0467689 C31.313625,67.8967715 31.1679252,68.7497474 31,69.6830035 C32.1837493,69.6830035 33.2913149,69.6919235 34.3981397,69.6657829 C34.4853126,69.6638007 34.6150842,69.426801 34.6436068,69.2828419 C35.0014357,67.4718321 35.3532143,65.6592117 35.6830145,63.8426269 C35.7467273,63.4921448 35.8573604,63.3934053 36.2279072,63.4275987 C37.7994896,63.5724249 39.3468711,63.456217 40.8622728,62.9554576 C43.7455241,62.0025032 45.6782692,59.3340574 45.1985711,56.001938 M80.5528797,50.5876158 C82.1600229,49.7229943 83.7924782,48.8851328 85.4771633,48.1909826 C88.380047,46.9949579 91.3994906,46.1766708 94.5127748,45.7148125 C94.8443036,45.6656286 95.2920219,45.4032316 95.3978394,45.128198 C95.4895809,44.8897116 95.2522631,44.4147211 95.0228476,44.1795797 C94.0712302,43.2042014 92.9682332,42.4628494 91.5828501,42.2378669 C91.2439128,42.1827363 90.9127544,42.0805279 90.5780153,42 L89.4284684,42 C89.1138555,42.0680151 88.8004774,42.1432157 88.4843829,42.2029302 C86.5948538,42.5601023 84.8091666,43.2102719 83.0960825,44.0814596 C79.3820952,45.9705195 76.0539656,48.4100184 73.0635385,51.2966327 C71.0747359,53.2161693 69.1440898,55.2033494 67.284318,57.2488811 C64.0121223,60.8478574 61.2140683,64.7985547 58.9795517,69.1321929 C57.8274118,71.3665315 56.7986229,73.6609563 56.3255924,76.1511258 C56.2385429,76.6088958 56.3847366,77.1390169 56.5322886,77.6007513 C56.593038,77.7905493 56.9304936,77.9274467 57.1687992,77.9991785 C57.2312773,78.0177618 57.4229096,77.7167115 57.5051436,77.5389307 C58.0534935,76.3538083 58.4824436,75.0984407 59.149576,73.986165 C60.4830997,71.7629764 61.8777434,69.569645 63.368944,67.4500276 C65.763854,64.0455571 68.5084435,60.9268986 71.4421958,57.9772247 C74.2166661,55.1876155 77.0550962,52.4694902 80.5528797,50.5876158" id="Payoneer"></path>
                </g>
            </g>
        </g>
    </g>
</svg>