<?xml version="1.0" encoding="UTF-8"?>
<svg width="100px" height="27px" viewBox="0 0 100 27" version="1.1" xmlns="http://www.w3.org/2000/svg" xmlns:xlink="http://www.w3.org/1999/xlink">
    <!-- Generator: Sketch 52.6 (67491) - http://www.bohemiancoding.com/sketch -->
    <title>PayPal</title>
    <desc>Created with Sketch.</desc>
    <g id="Layouts" stroke="none" stroke-width="1" fill="none" fill-rule="evenodd">
        <g id="Partners-Black-Three-Mobile" transform="translate(-57.000000, -271.000000)" fill="#E4E4E4">
            <g id="Partners" transform="translate(0.000000, 0.000000)">
                <g id="Slot3" transform="translate(24.000000, 224.000000)">
                    <path d="M132.351444,47 L128.758679,47 C128.439501,47 128.167518,47.2355557 128.118225,47.5547072 L124.925395,68.1337768 C124.863517,68.5326275 125.167662,68.8932226 125.565849,68.8932226 L128.776509,68.8932226 C129.308589,68.8932226 129.761311,68.5007478 129.844165,67.9687106 L132.991898,47.7594458 C133.054126,47.3605951 132.74998,47 132.351444,47 M88.0867075,54.2905384 L84.3429186,54.2905384 C83.984586,54.2905384 83.6496761,54.4704817 83.4486603,54.7705054 L78.284476,62.476897 L76.0956757,55.0715916 C75.9586353,54.608273 75.5377256,54.2905384 75.0605315,54.2905384 L71.3803685,54.2905384 C70.9356865,54.2905384 70.6235001,54.7333123 70.7664836,55.159438 L74.8888815,67.419671 L71.0115481,72.9632006 C70.7070528,73.3981817 71.0143448,74 71.5408315,74 L75.2807749,74 C75.635262,74 75.9670255,73.8239531 76.1690902,73.5288885 L88.6194869,55.3220246 C88.9176895,54.886335 88.6096983,54.2905384 88.0867075,54.2905384 M118.536936,61.6359808 C118.177206,63.7924669 116.487624,65.2398064 114.333083,65.2398064 C113.252492,65.2398064 112.387949,64.8877125 111.831747,64.2210721 C111.281139,63.5604534 111.073481,62.6189389 111.248277,61.5704503 C111.583886,59.4334462 113.300037,57.9393498 115.422415,57.9393498 C116.480282,57.9393498 117.338882,58.2946316 117.905572,58.9672938 C118.476107,59.644915 118.700196,60.5928054 118.536936,61.6359808 M123.72769,54.2905384 L120.003478,54.2905384 C119.6843,54.2905384 119.412317,54.5253857 119.363024,54.8448914 L119.199065,55.9001102 L118.938619,55.5179077 C118.131758,54.3316278 116.334152,53.9352566 114.538994,53.9352566 C110.423937,53.9352566 106.908782,57.0948914 106.224979,61.5265271 C105.868743,63.7372088 106.373905,65.8497717 107.611114,67.324386 C108.747989,68.6792742 110.36975,69.2431911 112.302299,69.2431911 C115.619235,69.2431911 117.458792,67.0838712 117.458792,67.0838712 L117.292736,68.1330683 C117.230159,68.5319191 117.534304,68.8932226 117.93319,68.8932226 L121.287532,68.8932226 C121.818913,68.8932226 122.271636,68.5007478 122.354489,67.9687106 L124.368144,55.04963 C124.430721,54.6507793 124.126226,54.2905384 123.72769,54.2905384 M63.0579631,61.6359808 C62.6982322,63.7924669 61.0086503,65.2398064 58.8537605,65.2398064 C57.7735189,65.2398064 56.9086264,64.8877125 56.3527739,64.2210721 C55.8018157,63.5604534 55.5941576,62.6189389 55.768954,61.5704503 C56.104563,59.4334462 57.8210635,57.9393498 59.9430916,57.9393498 C61.0006097,57.9393498 61.8595591,58.2946316 62.426249,58.9672938 C62.9967844,59.644915 63.2212229,60.5928054 63.0579631,61.6359808 M68.2487165,54.2905384 L64.5241552,54.2905384 C64.204977,54.2905384 63.9333434,54.5253857 63.8833516,54.8448914 L63.7200918,55.9001102 L63.4596452,55.5179077 C62.6527851,54.3316278 60.8548295,53.9352566 59.0600203,53.9352566 C54.9453134,53.9352566 51.4298086,57.0948914 50.7456555,61.5265271 C50.3894205,63.7372088 50.8949316,65.8497717 52.1321404,67.324386 C53.2686665,68.6792742 54.8907769,69.2431911 56.8233257,69.2431911 C60.1399123,69.2431911 61.979819,67.0838712 61.979819,67.0838712 L61.8137625,68.1330683 C61.7511854,68.5319191 62.0553311,68.8932226 62.4542164,68.8932226 L65.8082094,68.8932226 C66.33994,68.8932226 66.7926626,68.5007478 66.8755161,67.9687106 L68.8891704,55.04963 C68.9513979,54.6507793 68.6469026,54.2905384 68.2487165,54.2905384 M45.8971535,54.3808643 C45.4720487,57.2100126 43.3395328,57.2100126 41.2772851,57.2100126 L40.1037022,57.2100126 L40.9266436,51.9278967 C40.9766353,51.6087453 41.2482689,51.3735438 41.5670975,51.3735438 L42.1054704,51.3735438 C43.5090853,51.3735438 44.8354403,51.3735438 45.5188941,52.1839972 C45.9282672,52.6689232 46.0520231,53.3876338 45.8971535,54.3808643 M50.6687451,49.0133816 C49.5626336,47.6963948 47.6017678,47 44.9997489,47 L37.2209602,47 C36.6892297,47 36.2361574,47.3921206 36.1536535,47.9241577 L33.0080178,68.1334225 C32.9461399,68.5322733 33.2502856,68.8932226 33.6488214,68.8932226 L37.3625453,68.8932226 C37.8946255,68.8932226 38.3473481,68.5007478 38.4302016,67.9683564 L39.2790129,62.5165696 C39.3615167,61.9841782 39.814589,61.5920576 40.3463196,61.5920576 L42.8078022,61.5920576 C47.9314338,61.5920576 50.8882894,59.0799355 51.661239,54.0999685 C52.0090838,51.9222292 51.6752227,50.2109965 50.6687451,49.0133816 M101.376127,54.3808643 C100.951372,57.2100126 98.8188558,57.2100126 96.7562585,57.2100126 L95.5826756,57.2100126 L96.4059665,51.9278967 C96.4556087,51.6087453 96.7275919,51.3735438 97.0464205,51.3735438 L97.5844437,51.3735438 C98.9880587,51.3735438 100.314414,51.3735438 100.997867,52.1839972 C101.407241,52.6689232 101.530996,53.3876338 101.376127,54.3808643 M106.148068,49.0133816 C105.041607,47.6963948 103.080741,47 100.478722,47 L92.6999336,47 C92.1685526,47 91.7154804,47.3921206 91.6326269,47.9241577 L88.4869912,68.1334225 C88.4254629,68.5322733 88.729259,68.8932226 89.1274452,68.8932226 L93.1187458,68.8932226 C93.4910621,68.8932226 93.8077931,68.6183486 93.8658255,68.24571 L94.7579862,62.5165696 C94.8408397,61.9841782 95.2935623,61.5920576 95.8256425,61.5920576 L98.2871252,61.5920576 C103.410407,61.5920576 106.367263,59.0799355 107.140212,54.0999685 C107.488057,51.9222292 107.154196,50.2109965 106.148068,49.0133816" id="PayPal"></path>
                </g>
            </g>
        </g>
    </g>
</svg>