<?xml version="1.0" encoding="UTF-8"?>
<svg width="81px" height="28px" viewBox="0 0 81 28" version="1.1" xmlns="http://www.w3.org/2000/svg" xmlns:xlink="http://www.w3.org/1999/xlink">
    <!-- Generator: Sketch 52.6 (67491) - http://www.bohemiancoding.com/sketch -->
    <title>Skrill</title>
    <desc>Created with Sketch.</desc>
    <g id="Layouts" stroke="none" stroke-width="1" fill="none" fill-rule="evenodd">
        <g id="Partners-Black-Three-Mobile" transform="translate(-66.000000, -510.000000)" fill="#E4E4E4">
            <g id="Partners" transform="translate(0.000000, 0.000000)">
                <g id="Slot7" transform="translate(24.000000, 464.000000)">
                    <path d="M100.18254,52.7270709 C102.018838,52.7270709 103.507236,51.2214419 103.507236,49.3644392 C103.507236,47.507075 102.018838,46 100.18254,46 C98.3483852,46 96.8607015,47.507075 96.8607015,49.3644392 C96.8607015,51.2214419 98.3483852,52.7270709 100.18254,52.7270709 Z M74.7193966,54.5425015 C74.5697352,54.9242409 73.4899591,58.0110514 70.8785653,61.2102871 L70.8785653,47.5305722 L63.9205634,48.9226916 L63.9205634,73.717672 L70.8785653,73.717672 L70.8785653,66.0532431 C72.8938141,69.1122185 73.8889369,73.717672 73.8889369,73.717672 L82.2231801,73.717672 C81.3987926,70.2494836 77.7922759,63.8535427 77.7922759,63.8535427 C81.0291041,59.7010432 82.450351,55.275976 82.6768075,54.5425015 L74.7193966,54.5425015 Z M93.0120121,54.2840322 C86.7798141,54.4864697 83.6162092,57.316257 83.6162092,62.9414894 L83.6162092,73.717672 L90.4152629,73.717672 L90.4152629,64.9300764 C90.4152629,61.5612993 90.851031,60.1174861 94.8004471,59.9801177 L94.8004471,54.3827205 C94.1357222,54.2399298 93.0120121,54.2840322 93.0120121,54.2840322 Z M52.2512656,57.2728775 C51.3990175,57.2161227 49.4255596,57.0874303 49.4255596,55.2897129 C49.4255596,53.120378 52.2666246,53.120378 53.3317561,53.120378 C55.2055589,53.120378 57.6319299,53.6803346 59.3646438,54.2048647 C59.3646438,54.2048647 60.3311917,54.5497315 61.1534361,54.9032741 L61.2302312,54.9242409 L61.2302312,54.8454348 L61.2302312,48.9830614 L61.1252183,48.9516112 C59.080323,48.2275356 56.7025294,47.5305722 52.294128,47.5305722 C44.6931896,47.5305722 42,52.0120326 42,55.851477 C42,58.0645528 42.9369014,63.2729808 51.6422618,63.8737864 C52.3802101,63.9196963 54.338309,64.0335674 54.338309,65.8916546 C54.338309,67.4254803 52.7352539,68.3299422 50.0384924,68.3299422 C47.0831275,68.3299422 44.2159879,67.5671865 42.4750586,66.8438339 L42.4750586,72.9628692 C45.081809,73.6544102 48.0203861,74 51.4643827,74 C58.8963717,74 62.2249969,69.7596571 62.2249969,65.5572712 C62.2249969,60.7927598 58.5002514,57.6969118 52.2512656,57.2728775 Z M96.8117669,73.717672 L103.556171,73.717672 L103.556171,54.5641913 L96.8117669,54.5641913 L96.8117669,73.717672 Z M116.254882,48.7517042 L116.254882,73.717672 L123,73.717672 L123,47.5305722 L116.254882,48.7517042 Z M106.412952,48.7517042 L113.151641,47.5305722 L113.151641,73.717672 L106.412952,73.717672 L106.412952,48.7517042 Z" id="Skrill"></path>
                </g>
            </g>
        </g>
    </g>
</svg>