<?xml version="1.0" encoding="UTF-8"?>
<svg width="86px" height="35px" viewBox="0 0 86 35" version="1.1" xmlns="http://www.w3.org/2000/svg" xmlns:xlink="http://www.w3.org/1999/xlink">
    <!-- Generator: Sketch 52.6 (67491) - http://www.bohemiancoding.com/sketch -->
    <title>Stripe</title>
    <desc>Created with Sketch.</desc>
    <g id="Layouts" stroke="none" stroke-width="1" fill="none" fill-rule="evenodd">
        <g id="Partners-Black-Three-Mobile" transform="translate(-228.000000, -507.000000)" fill="#E4E4E4">
            <g id="Partners" transform="translate(0.000000, 0.000000)">
                <g id="Slot8" transform="translate(188.000000, 464.000000)">
                    <path d="M46.0438889,56.7149533 C46.0438889,55.8037383 46.8083333,55.453271 48.0744444,55.453271 C49.89,55.453271 52.1833333,55.9906542 53.9988889,56.9485981 L53.9988889,51.4579439 C52.0161111,50.6869159 50.0572222,50.3831776 48.0744444,50.3831776 C43.225,50.3831776 40,52.8598131 40,56.9953271 C40,63.4439252 49.0777778,62.4158879 49.0777778,65.1962617 C49.0777778,66.271028 48.1222222,66.6214953 46.7844444,66.6214953 C44.8016667,66.6214953 42.2694444,65.8271028 40.2627778,64.7523364 L40.2627778,70.3130841 C42.4844444,71.2476636 44.73,71.6448598 46.7844444,71.6448598 C51.7533333,71.6448598 55.1694444,69.2383178 55.1694444,65.0560748 C55.1455556,58.0934579 46.0438889,59.3317757 46.0438889,56.7149533 Z M62.1927778,45.7102804 L56.3638889,46.9252336 L56.34,65.6401869 C56.34,69.0981308 58.9916667,71.6448598 62.5272222,71.6448598 C64.4861111,71.6448598 65.9194444,71.2943925 66.7077778,70.8738318 L66.7077778,66.1308411 C65.9433333,66.4345794 62.1688889,67.5093458 62.1688889,64.0514019 L62.1688889,55.7570093 L66.7077778,55.7570093 L66.7077778,50.7803738 L62.1688889,50.7803738 L62.1927778,45.7102804 Z M74.1372222,52.5093458 L73.755,50.7803738 L68.595,50.7803738 L68.595,71.2242991 L74.5672222,71.2242991 L74.5672222,57.3691589 C75.9766667,55.5700935 78.3655556,55.8971963 79.1061111,56.1542056 L79.1061111,50.7803738 C78.3416667,50.5 75.5466667,49.9859813 74.1372222,52.5093458 Z M80.5633333,71.2242991 L86.5596833,71.2242991 L86.5596833,50.7803738 L80.5633333,50.7803738 L80.5633333,71.2242991 Z M80.5633333,49.0046729 L86.5596833,47.7429907 L86.5596833,43 L80.5633333,44.2383178 L80.5633333,49.0046729 Z M97.5961111,66.4813084 C96.1866667,66.4813084 95.3505556,65.9906542 94.7772222,65.3831776 L94.7533333,56.7149533 C95.3744444,56.0373832 96.2346833,55.5700935 97.5961111,55.5700935 C99.77,55.5700935 101.275,57.953271 101.275,61.0140187 C101.275,64.1448598 99.7938889,66.4813084 97.5961111,66.4813084 Z M99.0294444,50.3831776 C96.6883333,50.3831776 95.1833333,51.4579439 94.3472222,52.2056075 L94.0366667,50.7570093 L88.7811111,50.7570093 L88.7811111,78 L94.7533333,76.7616822 L94.7772222,70.1495327 C95.6374611,70.7570093 96.9033333,71.6214953 99.0055556,71.6214953 C103.281906,71.6214953 107.175556,68.2570093 107.175556,60.8504673 C107.151667,54.0747664 103.21,50.3831776 99.0294444,50.3831776 Z M114.198889,58.864486 C114.198889,56.2242991 115.847222,55.1261682 117.352222,55.1261682 C118.809683,55.1261682 120.362461,56.2242991 120.362461,58.864486 L114.198889,58.864486 Z M126,61.0841121 C126,55.1028037 123.037778,50.3831776 117.37635,50.3831776 C111.690556,50.3831776 108.250556,55.1028037 108.250556,61.0373832 C108.250556,68.0700935 112.311667,71.6214953 118.140556,71.6214953 C120.983333,71.6214953 123.133333,70.9906542 124.757778,70.1028037 L124.757778,65.4299065 C123.133333,66.2242991 121.27,66.7149533 118.905,66.7149533 C116.587778,66.7149533 114.533333,65.9205607 114.270794,63.1635514 L125.952222,63.1635514 C125.952222,62.8598131 126,61.6448598 126,61.0841121 Z" id="Stripe"></path>
                </g>
            </g>
        </g>
    </g>
</svg>