<?xml version="1.0" encoding="UTF-8"?>
<svg width="132px" height="31px" viewBox="0 0 132 31" version="1.1" xmlns="http://www.w3.org/2000/svg" xmlns:xlink="http://www.w3.org/1999/xlink">
    <!-- Generator: Sketch 52.6 (67491) - http://www.bohemiancoding.com/sketch -->
    <title>TransferWise</title>
    <desc>Created with Sketch.</desc>
    <g id="Layouts" stroke="none" stroke-width="1" fill="none" fill-rule="evenodd">
        <g id="Partners-Black-Three-Mobile" transform="translate(-40.000000, -389.000000)" fill="#E4E4E4">
            <g id="Partners" transform="translate(0.000000, 0.000000)">
                <g id="Slot5" transform="translate(24.000000, 344.000000)">
                    <path d="M121.723979,64.1423874 L121.643841,64.1423874 L119.29743,57.3483215 L117.673446,57.3483215 L115.000589,64.1423874 L114.920451,64.1423874 L113.126761,54.0792995 L111.166902,54.0792995 L113.615842,67.0392292 L115.431923,67.0392292 L118.329875,59.8753537 L118.408835,59.8753537 L120.922593,67.0392292 L122.739853,67.0392292 L125.861722,54.0792995 L123.989072,54.0792995 L121.723979,64.1423874 Z M109.069157,57.2831307 C108.052104,57.2831307 106.949021,57.6861283 106.42812,58.4269328 L106.347981,58.4269328 L106.347981,57.3637302 L104.58729,57.3637302 L104.58729,67.0392292 L106.40455,67.0392292 L106.40455,61.7504779 C106.40455,59.7058576 107.507634,58.8856389 108.965448,58.8856389 C109.4616,58.8856389 109.789226,58.9413474 110.229988,59.046838 L110.64718,57.573526 L110.63893,57.5806378 C110.061461,57.3400245 109.421531,57.2831307 109.069157,57.2831307 Z M98.4401907,57.1622314 C95.8227238,57.1622314 93.7980465,59.2874513 93.7980465,62.2103694 C93.7980465,65.2127017 95.7190151,67.2004282 98.4885095,67.2004282 C100.144314,67.2004282 101.610378,66.6054141 102.490724,65.5350998 L101.385283,64.4718972 C100.588611,65.2091458 99.7353713,65.6109582 98.6923915,65.6133287 C96.9387711,65.6074023 95.7260861,64.2170605 95.7260861,62.2020723 C95.7260861,60.3186511 96.7667089,58.7090311 98.48026,58.7090311 C100.441298,58.7090311 100.880881,60.3423568 101.017588,61.3652596 L97.631734,61.3652596 L96.991804,62.8373863 L102.858418,62.8373863 L102.883167,62.1534756 C102.883167,59.3680508 101.473671,57.1622314 98.4401907,57.1622314 Z M91.4999554,57.4609238 L91.4999554,57.1705284 C91.4999554,55.9639061 92.0774244,55.2871071 93.1015481,55.2871071 C93.5175616,55.2871071 94.1739907,55.3997094 94.7019624,55.5846142 L95.2794315,54.2487956 C94.5793975,53.9228416 93.8157242,53.7557161 93.0461582,53.7580867 C91.2053283,53.7580867 89.6037355,54.683796 89.6037355,57.1622314 L89.6037355,57.4609238 L88.387515,57.4609238 L88.387515,59.0705437 L89.6037355,59.0705437 L89.6037355,67.121014 L91.4209953,67.121014 L91.4209953,59.0705437 L93.2618253,59.0705437 L93.9029338,57.4609238 L91.4999554,57.4609238 Z M142.109816,62.8539803 L147.97643,62.8539803 L148,62.1700696 C148,59.3846448 146.591683,57.1788254 143.558202,57.1788254 C140.941914,57.1788254 138.916058,59.3040453 138.916058,62.2257781 C138.916058,65.2292957 140.837027,67.2170223 143.605343,67.2170223 C145.263504,67.2170223 146.72839,66.6220081 147.608735,65.5505085 L146.503294,64.4884912 C145.706623,65.2257398 144.853383,65.6263669 143.810403,65.6299228 C142.056783,65.6239963 140.845276,64.2336545 140.845276,62.2186664 C140.845276,60.3340598 141.88472,58.7244399 143.598272,58.7244399 C145.559309,58.7244399 146.000071,60.3589508 146.1356,61.3806683 L142.749746,61.3806683 L142.109816,62.8539803 Z M134.850204,61.4529709 L134.938593,61.4529709 C133.530275,61.2597691 132.69707,60.9859677 132.69707,60.0602585 C132.69707,59.2151487 133.522026,58.6924371 134.5379,58.6924371 C135.361677,58.6924371 136.410549,59.0136499 137.07405,59.5138411 L137.875435,58.2005429 C137.051658,57.5166323 135.714051,57.1539344 134.481331,57.1539344 C132.360016,57.1539344 130.783172,58.4423415 130.783172,60.1337463 C130.783172,62.064579 132.024142,62.6927812 134.121886,63.0317733 C135.306287,63.2249751 136.331589,63.3529862 136.331589,64.3664067 C136.331589,65.2127017 135.505455,65.6797048 134.410621,65.6797048 C133.31343,65.6797048 132.368266,65.3821978 131.43253,64.6330963 L130.632323,66.0827025 C131.320572,66.7097194 132.75246,67.2087252 134.354052,67.2087252 C136.562577,67.2087252 138.154742,65.9215034 138.154742,64.2063929 C138.154742,62.1380668 136.498938,61.6710637 134.850204,61.4529709 Z M127.029623,56.0433203 L129.01541,56.0433203 L129.01541,54.0792995 L127.029623,54.0792995 L127.029623,56.0433203 Z M127.109762,67.0392292 L128.927022,67.0392292 L128.927022,57.3554332 L127.109762,57.3554332 L127.109762,67.0392292 Z M44.198168,54.0875965 L44.198168,55.8347098 L48.1992036,55.8347098 L48.1992036,67.0392292 L50.1201721,67.0392292 L50.1201721,55.8264128 L54.1223863,55.8264128 L54.1223863,54.0792995 L44.0378908,54.0792995 L44.198168,54.0875965 Z M60.261236,57.5415233 C59.7615485,57.3495068 59.2288627,57.2558691 58.6926415,57.267722 C57.7156581,57.2274222 56.776387,57.6505697 56.1553131,58.4103388 L56.0751745,58.4103388 L56.0751745,57.3483215 L54.3144832,57.3483215 L54.3144832,67.0392292 L56.1317429,67.0392292 L56.1317429,61.7504779 C56.1317429,59.7058576 57.1240469,58.8856389 58.5889327,58.8856389 C59.0850847,58.8856389 59.41271,58.9413474 59.8534721,59.046838 L60.2694856,57.5498203 L60.261236,57.5415233 Z M84.3369819,61.4612679 L84.4253701,61.4529709 C83.0170527,61.2597691 82.1838473,60.9859677 82.1838473,60.0602585 C82.1838473,59.2151487 83.0088031,58.6924371 84.0258558,58.6924371 C84.8496331,58.6924371 85.8985054,59.0136499 86.5620056,59.5138411 L87.3633912,58.2005429 C86.5384354,57.5166323 85.202007,57.1539344 83.9692874,57.1539344 C81.8479724,57.1539344 80.2711283,58.4423415 80.2711283,60.1337463 C80.2711283,62.064579 81.5120976,62.7093752 83.6086638,63.0317733 C84.7930647,63.2249751 85.8183669,63.3529862 85.8183669,64.3664067 C85.8183669,65.2127017 84.9934111,65.6797048 83.8962198,65.6797048 C82.8143492,65.6939283 81.7619413,65.325304 80.9193079,64.6413933 L80.1191008,66.0909995 C80.8073496,66.7180164 82.2404157,67.2170223 83.84083,67.2170223 C86.0493545,67.2170223 87.6426977,65.9298004 87.6426977,64.2146899 C87.6426977,62.1451786 85.9868936,61.6781754 84.3369819,61.4612679 Z M75.0927629,57.1705284 L75.1729015,57.1622314 C73.9566809,57.1622314 72.8512401,57.6292345 72.3067693,58.5798348 L72.2266307,58.5798348 L72.2266307,57.3554332 L70.4659393,57.3554332 L70.4659393,67.0392292 L72.2831991,67.0392292 L72.2831991,61.8073717 C72.2831991,59.8990594 73.2436834,58.7481456 74.684999,58.7481456 C76.1251362,58.7481456 76.9736621,59.5138411 76.9736621,61.2846601 L76.9736621,67.0392292 L78.7909219,67.0392292 L78.7909219,60.953965 C78.7909219,58.4992353 77.3496063,57.1705284 75.0927629,57.1705284 Z M66.5285431,63.2960924 C66.5285431,64.7456986 65.3441423,65.6714078 63.6871596,65.6714078 C62.6948556,65.6714078 61.8463297,65.2044047 61.8463297,64.0617879 C61.8463297,62.9985853 62.6465368,62.2909689 64.0878524,62.2909689 C65.304073,62.2909689 66.0889595,62.5078764 66.5450422,62.8373863 L66.5285431,63.2960924 Z M63.9758941,57.0982259 L63.9676446,57.1622314 C62.895202,57.1622314 61.8698998,57.3234305 61.1026909,57.6292345 L61.4055676,59.1025465 C62.2069532,58.8287451 63.0071603,58.7161428 63.7272289,58.7161428 C65.2722533,58.7161428 66.5285431,59.4249446 66.5285431,61.0108588 L66.5285431,61.2846601 C66.0323911,61.0914583 65.2640037,60.8496597 64.1267432,60.8496597 C61.7261218,60.8496597 60.0219988,62.1048788 60.0219988,64.0688996 C60.0219988,66.1941194 61.6224131,67.1530167 63.4149242,67.1530167 C64.9033802,67.1530167 65.9204328,66.5568173 66.4566541,65.8409039 L66.5367927,65.8409039 L66.5367927,66.968112 L68.2974841,66.968112 L68.2974841,60.9136652 C68.2974841,58.2574367 66.5851115,57.0982259 63.9758941,57.0982259 Z M19.6309841,45.0071117 L24.4522615,53.1298845 L16,61.2443603 L30.6146814,61.2443603 L31.991179,57.9919324 L23.9242898,57.9919324 L28.7255326,53.1132905 L25.877078,48.2595396 L39.1789011,48.2595396 L27.4928129,76 L31.4950271,76 L44.5422924,45.0071117 L19.6309841,45.0071117 Z" id="TransferWise"></path>
                </g>
            </g>
        </g>
    </g>
</svg>