<?xml version="1.0" encoding="UTF-8"?>
<svg width="83px" height="27px" viewBox="0 0 83 27" version="1.1" xmlns="http://www.w3.org/2000/svg" xmlns:xlink="http://www.w3.org/1999/xlink">
    <!-- Generator: Sketch 52.6 (67491) - http://www.bohemiancoding.com/sketch -->
    <title>Visa</title>
    <desc>Created with Sketch.</desc>
    <g id="Layouts" stroke="none" stroke-width="1" fill="none" fill-rule="evenodd">
        <g id="Partners-Black-Three-Mobile" transform="translate(-228.000000, -151.000000)" fill="#E4E4E4">
            <g id="Partners" transform="translate(0.000000, 0.000000)">
                <g id="Slot2" transform="translate(188.000000, 104.000000)">
                    <path d="M81.0674834,47.492607 L74.3372859,47.492607 C72.4902072,56.1823786 70.64757,64.8510276 68.7919144,73.5808862 L69.3446596,73.5808862 C71.1897473,73.5808862 73.0352945,73.5591468 74.8797696,73.5950708 C75.3942254,73.6049384 75.5697438,73.4464408 75.6745035,72.9476666 C77.1824917,65.7662435 78.712994,58.5899084 80.2376764,51.4121857 C80.5133598,50.1142935 80.7873584,48.8160931 81.0674834,47.492607 Z M71.4819717,47.4859772 C71.2932817,47.4770347 71.1601879,47.4654712 71.0269409,47.4654712 C68.9665139,47.4642377 66.9059337,47.4728718 64.8455066,47.4563745 C64.5163712,47.4537534 64.3687275,47.5578253 64.2489583,47.8647989 C62.054059,53.4865312 59.8472135,59.1034839 57.6411337,64.720745 C57.5991685,64.8275921 57.5348424,64.9253426 57.4427948,65.0997209 C57.383676,64.8069319 57.3394135,64.6000216 57.3003584,64.392032 C56.4097478,59.6377196 55.5272546,54.8818654 54.6254636,50.1295574 C54.3068961,48.4508393 53.0908261,47.4656254 51.4060942,47.4650086 C47.8540668,47.4637752 44.3020394,47.4647003 40.750012,47.4647003 C40.0099552,47.4647003 40.0099552,47.4647003 40,48.2480918 C40.0825519,48.2689062 40.1701579,48.2920333 40.2582234,48.3130018 C42.247126,48.7883406 44.1968202,49.3733017 46.0751431,50.206031 C47.2469507,50.7254654 47.8716799,51.5719167 48.1836616,52.8110661 C49.8849345,59.5661798 51.6342988,66.3089592 53.3550226,73.058985 C53.4539623,73.4476742 53.5942546,73.5993879 54.0244738,73.593529 C56.0538099,73.5651598 58.0839118,73.5719438 60.1135542,73.5890578 C60.4843484,73.5919872 60.6710473,73.495316 60.8235922,73.127287 C64.0262674,65.3991396 67.2459432,57.6782386 70.4616368,49.9557959 C70.7985832,49.1468104 71.1309349,48.3362831 71.4819717,47.4859772 Z M99.176513,63.9453709 C98.9369748,62.0097879 97.7957987,60.5785295 96.2309891,59.5373481 C94.9023483,58.6534308 93.4669567,57.9337159 92.0998734,57.1060745 C91.4984241,56.7419 90.8966685,56.3468893 90.3889516,55.8655375 C89.6525706,55.1672537 89.6628322,54.2101007 90.4336736,53.545274 C90.8831907,53.1575098 91.4610537,52.8500738 92.0320247,52.6898801 C93.4364784,52.2957946 94.87478,52.414822 96.2786211,52.7267293 C97.3050822,52.9547624 98.3035156,53.3098402 99.3482025,53.6182014 C99.7294114,51.8241562 100.119044,49.9903324 100.518019,48.111642 C99.7261951,47.884534 98.9967062,47.6433956 98.2515952,47.4702508 C97.4352661,47.2807628 96.6043869,47.1540264 95.7799404,47 L92.6425102,47 C92.5133985,47.0314528 92.3858184,47.0766277 92.2548687,47.0925083 C89.8959378,47.3802093 87.6817407,48.0650794 85.8167425,49.6081187 C83.6733041,51.3816579 82.6370409,53.6641472 82.9373826,56.4751676 C83.1380188,58.3526245 84.1958773,59.7650728 85.6565398,60.8244476 C86.7960312,61.6508555 88.0753553,62.2802206 89.2794791,63.0185914 C90.0504737,63.4914632 90.8638929,63.9265608 91.5405424,64.5155306 C92.5700668,65.4117824 92.4616313,66.8455076 91.3310231,67.6087014 C90.8098283,67.9602332 90.183108,68.2334412 89.5683341,68.349385 C87.2055742,68.7949668 84.9258257,68.3854632 82.7183675,67.4899824 C82.2564446,67.3024988 81.8043238,67.0903463 81.3226437,66.8786564 C80.9115691,68.8159354 80.5119813,70.7003304 80.112853,72.5821044 C80.1972428,72.6349884 80.2453342,72.6752295 80.3003178,72.697894 C80.4848725,72.7740592 80.6694272,72.8520746 80.8588829,72.9148261 C83.6843314,73.8491604 86.5829892,74.182653 89.5401531,73.9055905 C91.6580142,73.7071601 93.6905666,73.1715368 95.4866439,71.9720119 C98.3428771,70.0644897 99.6004528,67.3681797 99.176513,63.9453709 Z M109.315076,64.2905812 C110.472487,61.076687 111.617186,57.8981001 112.761884,54.7193591 C112.788687,54.7246013 112.815643,54.7298434 112.842445,54.7352397 C113.499338,57.9059633 114.156383,61.076687 114.822312,64.2905812 L109.315076,64.2905812 Z M122.397172,70.7348669 C120.960709,63.8238766 119.531137,56.9113444 118.098043,49.9995832 C117.923597,49.157603 117.74088,48.3174731 117.559694,47.4647003 C115.70021,47.4647003 113.886979,47.4645461 112.073901,47.4647003 C110.44691,47.4647003 109.501163,48.0991534 108.870307,49.6139776 C105.957406,56.6077629 103.044045,63.601394 100.132215,70.595796 C99.7249698,71.5734551 99.3240036,72.553581 98.9006765,73.5801153 C101.224228,73.5801153 103.482841,73.5852033 105.741454,73.5654682 C105.860304,73.5645431 106.034138,73.3735133 106.086517,73.2344425 C106.47278,72.2092958 106.850314,71.1799862 107.195377,70.1401924 C107.310858,69.792361 107.461565,69.6662413 107.840936,69.6693249 C110.346438,69.6893684 112.852554,69.6973858 115.358056,69.6648537 C115.860106,69.6583781 116.003921,69.8338356 116.084329,70.2868181 C116.277767,71.3779541 116.523125,72.4599934 116.751636,73.5657765 L123,73.5657765 L123,73.3799889 C122.798292,72.4986927 122.581114,71.6201718 122.397172,70.7348669 Z" id="Visa"></path>
                </g>
            </g>
        </g>
    </g>
</svg>